<svg width="264" height="278" viewBox="0 0 264 278" fill="none" xmlns="http://www.w3.org/2000/svg">
<path d="M105.081 28.4072C89.0814 6.0072 55.5 0 48.0814 3.9072C6.48697 25.8139 90.0814 80.4072 97.5814 80.4072C105.081 80.4072 111.581 96.4072 97.5814 90.4072C83.5814 84.4072 82.0814 86.4072 82.0814 87.4072C82.0814 88.4072 79.0814 93.9072 99.0814 105.407C119.081 116.907 114.581 127.407 95.0814 112.407C75.5814 97.4072 80.5814 110.907 90.0814 116.907C99.5814 122.907 115.081 138.407 110.081 141.907C105.081 145.407 96.0814 136.907 83.5814 123.407C71.0814 109.907 76.5814 121.907 80.5814 125.407C84.5814 128.907 98.0814 144.907 93.0814 146.907C88.0814 148.907 76.5814 135.407 69.5814 127.407C62.5814 119.407 62.0814 124.407 66.0814 128.907C70.0814 133.407 73.5814 138.407 71.0814 141.907C68.5814 145.407 49.5814 133.407 31.0814 96.4072C12.5814 59.4072 1.58139 53.9072 0.0813863 72.4072C-1.41861 90.9072 17.5814 143.907 76.5814 198.907C135.581 253.907 176.581 206.407 190.081 198.907C203.581 191.407 216.081 168.407 193.081 167.907C170.081 167.407 145.581 152.907 134.581 141.907C123.581 130.907 137.581 133.407 141.581 136.907C145.581 140.407 161.581 141.407 144.081 133.407C121.281 122.607 120.915 116.241 123.581 114.407C123.248 112.741 126.181 111.907 140.581 121.907C158.581 134.407 155.081 125.407 148.081 121.907C141.081 118.407 117.581 99.4072 123.581 96.4072C129.581 93.4072 126.581 95.4072 148.081 110.907C165.281 123.307 164.248 117.074 161.581 112.407C153.915 106.907 139.981 95.2072 145.581 92.4072C152.581 88.9072 150.081 92.4072 169.581 108.407C185.181 121.207 183.748 111.741 181.081 105.407C175.915 102.074 167.481 94.8072 175.081 92.4072C184.581 89.4072 179.081 90.9072 190.081 105.407C201.081 119.907 238.581 163.407 255.081 105.407C271.581 47.4072 263.081 28.4072 232.081 7.40677C201.081 -13.5937 167.081 15.4068 157.581 28.4072C148.081 41.4076 125.081 56.4072 105.081 28.4072Z" fill="#B91C1B"/>
<path d="M37.5568 261.875H32.5795C32.4886 261.231 32.303 260.659 32.0227 260.159C31.7424 259.652 31.3826 259.22 30.9432 258.864C30.5038 258.508 29.9962 258.235 29.4205 258.045C28.8523 257.856 28.2348 257.761 27.5682 257.761C26.3636 257.761 25.3144 258.061 24.4205 258.659C23.5265 259.25 22.8333 260.114 22.3409 261.25C21.8485 262.379 21.6023 263.75 21.6023 265.364C21.6023 267.023 21.8485 268.417 22.3409 269.545C22.8409 270.674 23.5379 271.527 24.4318 272.102C25.3258 272.678 26.3598 272.966 27.5341 272.966C28.1932 272.966 28.803 272.879 29.3636 272.705C29.9318 272.53 30.4356 272.277 30.875 271.943C31.3144 271.602 31.678 271.189 31.9659 270.705C32.2614 270.22 32.4659 269.667 32.5795 269.045L37.5568 269.068C37.428 270.136 37.1061 271.167 36.5909 272.159C36.0833 273.144 35.3977 274.027 34.5341 274.807C33.678 275.58 32.6553 276.193 31.4659 276.648C30.2841 277.095 28.947 277.318 27.4545 277.318C25.3788 277.318 23.5227 276.848 21.8864 275.909C20.2576 274.97 18.9697 273.61 18.0227 271.83C17.0833 270.049 16.6136 267.894 16.6136 265.364C16.6136 262.826 17.0909 260.667 18.0455 258.886C19 257.106 20.2955 255.75 21.9318 254.818C23.5682 253.879 25.4091 253.409 27.4545 253.409C28.803 253.409 30.053 253.598 31.2045 253.977C32.3636 254.356 33.3902 254.909 34.2841 255.636C35.178 256.356 35.9053 257.239 36.4659 258.284C37.0341 259.33 37.3977 260.527 37.5568 261.875Z" fill="#1E1E1E"/>
<path d="M62.4716 265.364C62.4716 267.902 61.9905 270.061 61.0284 271.841C60.0739 273.621 58.7708 274.981 57.1193 275.92C55.4754 276.852 53.6269 277.318 51.5739 277.318C49.5057 277.318 47.6496 276.848 46.0057 275.909C44.3617 274.97 43.0625 273.61 42.108 271.83C41.1534 270.049 40.6761 267.894 40.6761 265.364C40.6761 262.826 41.1534 260.667 42.108 258.886C43.0625 257.106 44.3617 255.75 46.0057 254.818C47.6496 253.879 49.5057 253.409 51.5739 253.409C53.6269 253.409 55.4754 253.879 57.1193 254.818C58.7708 255.75 60.0739 257.106 61.0284 258.886C61.9905 260.667 62.4716 262.826 62.4716 265.364ZM57.483 265.364C57.483 263.72 57.2367 262.333 56.7443 261.205C56.2595 260.076 55.5739 259.22 54.6875 258.636C53.8011 258.053 52.7633 257.761 51.5739 257.761C50.3845 257.761 49.3466 258.053 48.4602 258.636C47.5739 259.22 46.8845 260.076 46.392 261.205C45.9072 262.333 45.6648 263.72 45.6648 265.364C45.6648 267.008 45.9072 268.394 46.392 269.523C46.8845 270.652 47.5739 271.508 48.4602 272.091C49.3466 272.674 50.3845 272.966 51.5739 272.966C52.7633 272.966 53.8011 272.674 54.6875 272.091C55.5739 271.508 56.2595 270.652 56.7443 269.523C57.2367 268.394 57.483 267.008 57.483 265.364Z" fill="#1E1E1E"/>
<path d="M66.1165 277V253.727H71.0369V272.943H81.0142V277H66.1165Z" fill="#1E1E1E"/>
<path d="M84.2727 277V253.727H89.1932V272.943H99.1705V277H84.2727Z" fill="#1E1E1E"/>
<path d="M107.034 277H101.761L109.795 253.727H116.136L124.159 277H118.886L113.057 259.045H112.875L107.034 277ZM106.705 267.852H119.159V271.693H106.705V267.852Z" fill="#1E1E1E"/>
<path d="M126.96 277V253.727H136.278C137.991 253.727 139.419 253.981 140.562 254.489C141.706 254.996 142.566 255.701 143.142 256.602C143.718 257.496 144.006 258.527 144.006 259.693C144.006 260.602 143.824 261.402 143.46 262.091C143.097 262.773 142.597 263.333 141.96 263.773C141.331 264.205 140.612 264.511 139.801 264.693V264.92C140.688 264.958 141.517 265.208 142.29 265.67C143.07 266.133 143.703 266.78 144.188 267.614C144.672 268.439 144.915 269.424 144.915 270.568C144.915 271.803 144.608 272.905 143.994 273.875C143.388 274.837 142.491 275.598 141.301 276.159C140.112 276.72 138.646 277 136.903 277H126.96ZM131.881 272.977H135.892C137.263 272.977 138.263 272.716 138.892 272.193C139.521 271.663 139.835 270.958 139.835 270.08C139.835 269.436 139.68 268.867 139.369 268.375C139.059 267.883 138.616 267.496 138.04 267.216C137.472 266.936 136.794 266.795 136.006 266.795H131.881V272.977ZM131.881 263.466H135.528C136.203 263.466 136.801 263.349 137.324 263.114C137.854 262.871 138.271 262.53 138.574 262.091C138.884 261.652 139.04 261.125 139.04 260.511C139.04 259.67 138.741 258.992 138.142 258.477C137.551 257.962 136.71 257.705 135.619 257.705H131.881V263.466Z" fill="#1E1E1E"/>
<path d="M169.503 265.364C169.503 267.902 169.022 270.061 168.06 271.841C167.105 273.621 165.802 274.981 164.151 275.92C162.507 276.852 160.658 277.318 158.605 277.318C156.537 277.318 154.681 276.848 153.037 275.909C151.393 274.97 150.094 273.61 149.139 271.83C148.185 270.049 147.707 267.894 147.707 265.364C147.707 262.826 148.185 260.667 149.139 258.886C150.094 257.106 151.393 255.75 153.037 254.818C154.681 253.879 156.537 253.409 158.605 253.409C160.658 253.409 162.507 253.879 164.151 254.818C165.802 255.75 167.105 257.106 168.06 258.886C169.022 260.667 169.503 262.826 169.503 265.364ZM164.514 265.364C164.514 263.72 164.268 262.333 163.776 261.205C163.291 260.076 162.605 259.22 161.719 258.636C160.832 258.053 159.795 257.761 158.605 257.761C157.416 257.761 156.378 258.053 155.491 258.636C154.605 259.22 153.916 260.076 153.423 261.205C152.938 262.333 152.696 263.72 152.696 265.364C152.696 267.008 152.938 268.394 153.423 269.523C153.916 270.652 154.605 271.508 155.491 272.091C156.378 272.674 157.416 272.966 158.605 272.966C159.795 272.966 160.832 272.674 161.719 272.091C162.605 271.508 163.291 270.652 163.776 269.523C164.268 268.394 164.514 267.008 164.514 265.364Z" fill="#1E1E1E"/>
<path d="M173.148 277V253.727H182.33C184.087 253.727 185.587 254.042 186.83 254.67C188.08 255.292 189.03 256.174 189.682 257.318C190.341 258.455 190.67 259.792 190.67 261.33C190.67 262.875 190.337 264.205 189.67 265.318C189.004 266.424 188.038 267.273 186.773 267.864C185.515 268.455 183.992 268.75 182.205 268.75H176.057V264.795H181.409C182.348 264.795 183.129 264.667 183.75 264.409C184.371 264.152 184.833 263.765 185.136 263.25C185.447 262.735 185.602 262.095 185.602 261.33C185.602 260.557 185.447 259.905 185.136 259.375C184.833 258.845 184.367 258.443 183.739 258.17C183.117 257.89 182.333 257.75 181.386 257.75H178.068V277H173.148ZM185.716 266.409L191.5 277H186.068L180.409 266.409H185.716Z" fill="#1E1E1E"/>
<path d="M198.159 277H192.886L200.92 253.727H207.261L215.284 277H210.011L204.182 259.045H204L198.159 277ZM197.83 267.852H210.284V271.693H197.83V267.852Z" fill="#B91C1B"/>
<path d="M223.006 253.727V277H218.085V253.727H223.006Z" fill="#B91C1B"/>
<path d="M235.304 277H227.054V253.727H235.372C237.713 253.727 239.728 254.193 241.418 255.125C243.107 256.049 244.406 257.379 245.315 259.114C246.232 260.849 246.69 262.924 246.69 265.341C246.69 267.765 246.232 269.848 245.315 271.591C244.406 273.333 243.099 274.67 241.395 275.602C239.698 276.534 237.668 277 235.304 277ZM231.974 272.784H235.099C236.554 272.784 237.777 272.526 238.77 272.011C239.77 271.489 240.52 270.682 241.02 269.591C241.527 268.492 241.781 267.076 241.781 265.341C241.781 263.621 241.527 262.216 241.02 261.125C240.52 260.034 239.774 259.231 238.781 258.716C237.789 258.201 236.565 257.943 235.111 257.943H231.974V272.784Z" fill="#B91C1B"/>
</svg>
